<?xml version="1.0" encoding="UTF-8"?>
<svg width="30px" height="27px" viewBox="0 0 30 27" version="1.1" xmlns="http://www.w3.org/2000/svg" xmlns:xlink="http://www.w3.org/1999/xlink">
    <!-- Generator: Sketch 51.2 (57519) - http://www.bohemiancoding.com/sketch -->
    <title>icon_联系</title>
    <desc>Created with Sketch.</desc>
    <defs></defs>
    <g id="定稿" stroke="none" stroke-width="1" fill="none" fill-rule="evenodd">
        <g id="我的_高级会员" transform="translate(-55.000000, -998.000000)" fill-rule="nonzero">
            <g id="功能列表" transform="translate(20.000000, 700.000000)">
                <g id="icon_联系" transform="translate(32.000000, 294.000000)">
                    <rect id="Rectangle-path" fill="#000000" opacity="0" x="0" y="0" width="36" height="36"></rect>
                    <path d="M13.6501372,30.0547378 L13.6501372,30.0547378 C13.154524,29.3939572 13.2586252,28.4616142 13.8877755,27.9264196 L17.8090087,24.5907738 L28.6458906,24.5907738 C29.4486035,24.5907738 30.1005037,23.9388736 30.1005037,23.1361607 L30.1005037,8.35897436 C30.1005037,7.55626145 29.4486035,6.90436126 28.6458906,6.90436126 L7.35897436,6.90436126 C6.55626145,6.90436126 5.90436126,7.55626145 5.90436126,8.35897436 L5.90436126,23.1410256 C5.90436126,23.9437386 6.55626145,24.5956387 7.35897436,24.5956387 L9.34117445,24.5956387 C10.2022665,24.5956387 10.897951,25.2913233 10.897951,26.1524153 C10.897951,26.8967491 10.2947001,27.5 9.5503663,27.5 L7.35897436,27.5 C4.95083562,27.5 3,25.5491644 3,23.1410256 L3,8.35897436 C3,5.95083562 4.95083562,4 7.35897436,4 L28.6410256,4 C31.0491644,4 33,5.95083562 33,8.35897436 L33,23.1410256 C33,25.5491644 31.0491644,27.5 28.6410256,27.5 L19.1614583,27.5 L15.6766369,30.3083069 C15.0661459,30.8002821 14.1724205,30.7042062 13.6804452,30.0937152 C13.6701174,30.0808994 13.6600132,30.067905 13.6501372,30.0547378 Z" id="Shape" fill="#F5A623"></path>
                    <path d="M9,16 C9,17.1045695 9.8954305,18 11,18 C12.1045695,18 13,17.1045695 13,16 C13,14.8954305 12.1045695,14 11,14 C9.8954305,14 9,14.8954305 9,16 Z" id="Shape" fill="#F5A623"></path>
                    <path d="M16,16 C16,17.1045695 16.8954305,18 18,18 C19.1045695,18 20,17.1045695 20,16 C20,14.8954305 19.1045695,14 18,14 C16.8954305,14 16,14.8954305 16,16 Z" id="Shape" fill="#F5A623"></path>
                    <path d="M23,16 C23,16.7145312 23.3811978,17.3747853 24,17.7320509 C24.6188021,18.0893165 25.3811979,18.0893165 26,17.7320509 C26.6188022,17.3747853 27,16.7145312 27,16 C27,14.8954305 26.1045695,14 25,14 C23.8954305,14 23,14.8954305 23,16 Z" id="Shape" fill="#F5A623"></path>
                </g>
            </g>
        </g>
    </g>
</svg>