<?xml version="1.0" encoding="UTF-8"?>
<svg width="32px" height="32px" viewBox="0 0 32 32" version="1.1" xmlns="http://www.w3.org/2000/svg" xmlns:xlink="http://www.w3.org/1999/xlink">
    <!-- Generator: Sketch 51.2 (57519) - http://www.bohemiancoding.com/sketch -->
    <title>icon_right_circle</title>
    <desc>Created with Sketch.</desc>
    <defs></defs>
    <g id="定稿" stroke="none" stroke-width="1" fill="none" fill-rule="evenodd">
        <g id="首页_未认证" transform="translate(-666.000000, -361.000000)" fill-rule="nonzero">
            <g id="认证入口" transform="translate(20.000000, 320.000000)">
                <g id="icon_right_circle" transform="translate(644.000000, 39.000000)">
                    <rect id="Rectangle-path" fill="#000000" opacity="0" x="0" y="0" width="36" height="36"></rect>
                    <path d="M18,2.25 C9.30234375,2.25 2.25,9.30234375 2.25,18 C2.25,26.6976563 9.30234375,33.75 18,33.75 C26.6976563,33.75 33.75,26.6976563 33.75,18 C33.75,9.30234375 26.6976563,2.25 18,2.25 Z M23.4386719,18.2285156 L14.7902344,24.4863281 C14.6039063,24.6199219 14.34375,24.4863281 14.34375,24.2578125 L14.34375,22.6089844 C14.34375,22.2503906 14.5160156,21.909375 14.8078125,21.6984375 L19.9195313,18 L14.8078125,14.3015625 C14.5160156,14.090625 14.34375,13.753125 14.34375,13.3910156 L14.34375,11.7421875 C14.34375,11.5136719 14.6039062,11.3800781 14.7902344,11.5136719 L23.4386719,17.7714844 C23.5933594,17.8839844 23.5933594,18.1160156 23.4386719,18.2285156 Z" id="Shape" fill="#F5A623"></path>
                </g>
            </g>
        </g>
    </g>
</svg>