<?xml version="1.0" encoding="UTF-8"?>
<svg width="48px" height="48px" viewBox="0 0 48 48" version="1.1" xmlns="http://www.w3.org/2000/svg" xmlns:xlink="http://www.w3.org/1999/xlink">
    <!-- Generator: Sketch 51.2 (57519) - http://www.bohemiancoding.com/sketch -->
    <title>icon_bill</title>
    <desc>Created with Sketch.</desc>
    <defs>
        <linearGradient x1="50%" y1="-8.15320034e-15%" x2="50%" y2="98.1033237%" id="linearGradient-1">
            <stop stop-color="#806CEC" offset="0%"></stop>
            <stop stop-color="#A399FF" offset="100%"></stop>
        </linearGradient>
    </defs>
    <g id="定稿" stroke="none" stroke-width="1" fill="none" fill-rule="evenodd">
        <g id="申请贷款" transform="translate(-40.000000, -799.000000)" fill-rule="nonzero">
            <g id="认证列表" transform="translate(30.000000, 391.000000)">
                <g id="icon_bill" transform="translate(10.000000, 408.000000)">
                    <rect id="Rectangle-13" fill="url(#linearGradient-1)" x="0" y="0" width="48" height="48" rx="8"></rect>
                    <path d="M34.1238281,10 L14.0109375,10 C12.9,10 12,10.9035156 12,12.0109375 L12,36.0507812 C12,37.1617188 12.9035156,38.0617187 14.0109375,38.0617187 L34.1238281,38.0617187 C35.2347656,38.0617187 36.1347656,37.1582031 36.1347656,36.0507812 L36.1347656,12.0109375 C36.1347656,10.9 35.2382812,10 34.1238281,10 Z M20.3601562,18.4832031 C19.8082031,18.4832031 19.3546875,18.0296875 19.3546875,17.4777344 C19.3546875,16.9257812 19.8082031,16.4722656 20.3601562,16.4722656 L21.9035156,16.4722656 L20.6027344,15.1714844 C20.2125,14.7777344 20.2125,14.1378906 20.6027344,13.7476562 C20.9964844,13.3574219 21.6363281,13.3574219 22.0265625,13.7476562 L24.0832031,15.8042969 L26.1398437,13.7476562 C26.5335937,13.3574219 27.1734375,13.3574219 27.5636719,13.7476562 C27.9539062,14.1414062 27.9539062,14.78125 27.5636719,15.1714844 L26.2628906,16.4722656 L27.778125,16.4722656 C28.3300781,16.4722656 28.7835937,16.9257812 28.7835937,17.4777344 C28.7835937,18.0296875 28.3300781,18.4832031 27.778125,18.4832031 L25.0746094,18.4832031 L25.0746094,19.8894531 L27.778125,19.8894531 C28.3300781,19.8894531 28.7835937,20.3429688 28.7835937,20.8949219 C28.7835937,21.446875 28.3300781,21.9003906 27.778125,21.9003906 L25.0746094,21.9003906 L25.0746094,23.3769531 C25.0746094,23.9289063 24.6210937,24.3824219 24.0691406,24.3824219 C23.5171875,24.3824219 23.0636719,23.9289063 23.0636719,23.3769531 L23.0636719,21.9003906 L20.3601562,21.9003906 C19.8082031,21.9003906 19.3546875,21.446875 19.3546875,20.8949219 C19.3546875,20.3429688 19.8082031,19.8894531 20.3601562,19.8894531 L23.0636719,19.8894531 L23.0636719,18.4832031 L20.3601562,18.4832031 Z M16.2117187,27.0683594 C16.2117187,26.5164062 16.6652344,26.0628906 17.2171875,26.0628906 L24.6351562,26.0628906 C25.1871094,26.0628906 25.640625,26.5164062 25.640625,27.0683594 C25.640625,27.6203125 25.1871094,28.0738281 24.6351562,28.0738281 L17.2171875,28.0738281 C16.6652344,28.0773438 16.2117187,27.6238281 16.2117187,27.0683594 Z M31.9230469,33.6003906 C31.9230469,34.1523438 31.4695313,34.6058594 30.9175781,34.6058594 L17.2171875,34.6058594 C16.6652344,34.6058594 16.2117187,34.1523438 16.2117187,33.6003906 C16.2117187,33.0484375 16.6652344,32.5949219 17.2171875,32.5949219 L30.9175781,32.5949219 C31.4730469,32.5949219 31.9230469,33.0449219 31.9230469,33.6003906 Z M31.9230469,30.334375 C31.9230469,30.8863281 31.4695313,31.3398438 30.9175781,31.3398438 L17.2171875,31.3398438 C16.6652344,31.3398438 16.2117187,30.8863281 16.2117187,30.334375 C16.2117187,29.7824219 16.6652344,29.3289062 17.2171875,29.3289062 L30.9175781,29.3289062 C31.4730469,29.3289062 31.9230469,29.7824219 31.9230469,30.334375 Z" id="Shape" fill="#FFFFFF"></path>
                </g>
            </g>
        </g>
    </g>
</svg>