<?xml version="1.0" encoding="UTF-8"?>
<svg width="30px" height="29px" viewBox="0 0 30 29" version="1.1" xmlns="http://www.w3.org/2000/svg" xmlns:xlink="http://www.w3.org/1999/xlink">
    <!-- Generator: Sketch 51.2 (57519) - http://www.bohemiancoding.com/sketch -->
    <title>icon_记录</title>
    <desc>Created with Sketch.</desc>
    <defs></defs>
    <g id="定稿" stroke="none" stroke-width="1" fill="none" fill-rule="evenodd">
        <g id="我的_高级会员" transform="translate(-55.000000, -907.000000)" fill-rule="nonzero">
            <g id="功能列表" transform="translate(20.000000, 700.000000)">
                <g id="icon_记录" transform="translate(32.000000, 204.000000)">
                    <rect id="Rectangle-path" fill="#000000" opacity="0" x="0" y="0" width="36" height="36"></rect>
                    <path d="M19,7.36926928 L19,20.4802065 L22.6369895,24.6623377 C22.8322641,24.8860898 23.104839,25 23.3774057,25 C23.6540448,25 23.9306838,24.8820216 24.1259584,24.650133 L27.6246284,20.4842748 L27.6246284,7.25942732 C27.6246284,4.90799562 25.720701,3 23.3692693,3 C20.9568509,2.99995932 19,4.95677766 19,7.36926928 Z M21.6037021,7.36926928 C21.6037021,6.39696041 22.3970092,5.6036614 23.36931,5.6036614 C24.2805915,5.6036614 25.0210077,6.34407761 25.0210077,7.2553591 L25.0210077,20.028182 L23.3123549,21.8899935 L21.6037021,20.028182 L21.6037021,7.36926928 Z" id="Shape" fill="#F5A623"></path>
                    <path d="M29.6246245,9.43771065 L29.5769383,27.186707 C29.5754573,27.7379409 29.1281777,28.1840203 28.5769419,28.1840203 L7.43036566,28.1840203 C6.87808091,28.1840203 6.43036566,27.7363051 6.43036566,27.1840203 L6.43036566,11.9303657 C6.43036566,11.3780809 6.87808091,10.9303657 7.43036566,10.9303657 L15.6147218,10.9303657 C16.4114149,10.9303657 17.0524324,10.2847649 17.0524324,9.49265501 C17.0524324,8.64559618 16.4068317,8.0045787 15.6147218,8.0045787 L7.5,8.0045787 C5.290861,8.0045787 3.5,9.7954397 3.5,12.0045787 L3.5,27.114386 C3.5,29.323525 5.290861,31.114386 7.5,31.114386 L28.5,31.114386 C30.709139,31.114386 32.5,29.323525 32.5,27.114386 L32.5,9.43771065 C32.5,8.64559161 31.8543992,8 31.0622893,8 C30.265642,8 29.6246245,8.64560076 29.6246245,9.43771065 Z" id="Shape" fill="#F5A623"></path>
                    <path d="M15.4949251,15 L10.5050749,15 C9.67257562,15 9,15.7244739 9,16.621189 C9,17.5179041 9.67258503,18.242378 10.5050749,18.242378 L15.4949251,18.242378 C16.3274244,18.242378 17,17.5179041 17,16.621189 C17,15.7244739 16.327415,15 15.4949251,15 Z M15.4949251,20.6367426 L10.5050749,20.6367426 C9.67257562,20.6367426 9,21.3612165 9,22.2579316 C9,23.1546467 9.67258503,23.8791206 10.5050749,23.8791206 L15.4949251,23.8791206 C16.3274244,23.8791206 17,23.1546467 17,22.2579316 C17,21.3612165 16.327415,20.6367426 15.4949251,20.6367426 Z" id="Shape" fill="#F5A623"></path>
                </g>
            </g>
        </g>
    </g>
</svg>