<?xml version="1.0" encoding="UTF-8"?>
<svg width="34px" height="36px" viewBox="0 0 34 36" version="1.1" xmlns="http://www.w3.org/2000/svg" xmlns:xlink="http://www.w3.org/1999/xlink">
    <!-- Generator: Sketch 51.2 (57519) - http://www.bohemiancoding.com/sketch -->
    <title>icon_del</title>
    <desc>Created with Sketch.</desc>
    <defs></defs>
    <g id="定稿" stroke="none" stroke-width="1" fill="none" fill-rule="evenodd">
        <g id="基本信息_紧急联系人" transform="translate(-603.000000, -534.000000)" fill-rule="nonzero">
            <g id="紧急联系人" transform="translate(0.000000, 532.000000)">
                <g id="icon_del" transform="translate(602.000000, 2.000000)">
                    <rect id="Rectangle-path" fill="#000000" opacity="0" x="0" y="0" width="36" height="36"></rect>
                    <path d="M18.267907,0 C14.6143256,0 11.6405581,2.89925582 11.5149767,6.53274418 L2.98883721,6.53274418 C2.03976644,6.53274371 1.27013339,7.30162737 1.26920929,8.25069769 C1.27013341,9.19976799 2.03976646,9.96865163 2.98883721,9.96865116 L4.88762789,9.96865116 L4.88762789,29.2269767 C4.88762789,32.8428837 7.34232558,35.7957209 10.3688372,35.7957209 L25.8094884,35.7957209 C28.836,35.7957209 31.2906977,32.8604651 31.2906977,29.2269767 L31.2906977,9.98790697 L33.0103256,9.98790697 C33.959723,9.9879071 34.7294913,9.2185136 34.7299535,8.26911629 C34.7290294,7.32004597 33.9593963,6.55116232 33.0103256,6.55116279 L25.0032558,6.55116279 C24.9039044,2.90326322 21.9171588,-0.00180634086 18.267907,0 Z M14.4979535,6.22548837 C14.6226977,4.47572092 16.1372093,3.11274418 18.0083721,3.11274418 C19.8795349,3.11274418 21.3948837,4.47488371 21.5012093,6.22548837 L14.4979535,6.22548837 Z M10.5605581,32.6645581 C9.47134884,32.6645581 8.2724651,31.288186 8.2724651,29.3232558 L8.2724651,10.116 L28.5044651,10.116 L28.5044651,29.3408372 C28.5044651,31.3066047 27.3064186,32.6821395 26.2172093,32.6821395 L10.5605581,32.6821395 L10.5605581,32.6645581 Z" id="Shape" fill="#FA652B"></path>
                    <path d="M12.9415814,28.0130233 C13.7980465,28.0130233 14.4979535,27.2511628 14.4979535,26.2967442 L14.4979535,16.5013953 C14.4979535,15.5469767 13.7980465,14.7851163 12.9415814,14.7851163 C12.0859535,14.7851163 11.3852093,15.5469768 11.3852093,16.5013953 L11.3852093,26.2967442 C11.3852093,27.2511628 12.0658604,28.0130233 12.9424186,28.0130233 L12.9415814,28.0130233 Z M18.3884651,28.0130233 C19.2449302,28.0130233 19.9456744,27.2511628 19.9456744,26.2967442 L19.9456744,16.5013953 C19.9456744,15.5469767 19.2449302,14.7851163 18.3884651,14.7851163 C17.5328372,14.7851163 16.832093,15.5469768 16.832093,16.5013953 L16.832093,26.2967442 C16.832093,27.2511628 17.5328372,28.0130233 18.3893023,28.0130233 L18.3884651,28.0130233 Z M23.0575814,28.0130233 C23.9132093,28.0130233 24.6139535,27.2511628 24.6139535,26.2967442 L24.6139535,16.5013953 C24.6139535,15.5469767 23.9132093,14.7851163 23.0575814,14.7851163 C22.2019535,14.7851163 21.5012093,15.5469768 21.5012093,16.5013953 L21.5012093,26.2967442 C21.5012093,27.2511628 22.1818604,28.0130233 23.0575814,28.0130233 Z" id="Shape" fill="#FA652B"></path>
                </g>
            </g>
        </g>
    </g>
</svg>