<?xml version="1.0" encoding="UTF-8"?>
<svg width="35px" height="24px" viewBox="0 0 35 24" version="1.1" xmlns="http://www.w3.org/2000/svg" xmlns:xlink="http://www.w3.org/1999/xlink">
    <!-- Generator: Sketch 51.2 (57519) - http://www.bohemiancoding.com/sketch -->
    <title>icon_hot</title>
    <desc>Created with Sketch.</desc>
    <defs></defs>
    <g id="定稿" stroke="none" stroke-width="1" fill="none" fill-rule="evenodd">
        <g id="浏览记录" transform="translate(-136.000000, -427.000000)" fill="#FA652B" fill-rule="nonzero">
            <g transform="translate(0.000000, 148.000000)" id="icon_hot">
                <g transform="translate(136.000000, 279.000000)">
                    <path d="M18.1623479,6.42785394 C17.4531488,6.42785394 16.8906342,6.8129848 16.4751399,7.58319861 C16.010383,8.46349775 15.7782684,10.0956392 15.7782684,12.4797667 C15.7782684,14.8518065 15.9983432,16.4840438 16.4384928,17.3763349 C16.8172919,18.1465966 17.3921342,18.5316795 18.162348,18.5316795 C18.9569772,18.5316795 19.5254878,18.1465966 19.8679276,17.3763349 C20.320069,16.4593886 20.5464755,14.8271512 20.5464755,12.4797667 C20.5340999,10.0836473 20.3017454,8.4391303 19.849556,7.54655145 C19.4581414,6.80094495 18.8959145,6.42785394 18.1623479,6.42785394 Z M30.753667,0.870869563 L4.51579231,0.870869563 C2.26295173,0.870869563 0.436685937,2.69713536 0.436685937,4.94997594 L0.436685937,19.3866519 C0.436685937,21.6394925 2.26295173,23.4657583 4.51579231,23.4657583 L30.753667,23.4657583 C33.0065076,23.4657583 34.8327734,21.6394925 34.8327734,19.3866519 L34.8327734,4.95002389 C34.8327734,2.69718331 33.0064596,0.870869563 30.753667,0.870869563 Z M12.6973172,11.709505 L12.6973172,13.2499805 L12.6973172,19.3018933 C12.6973172,19.8153852 12.4405473,20.0721551 11.9270555,20.0721551 C11.4135636,20.0721551 11.1567937,19.8153852 11.1567937,19.3018933 L11.1567937,13.2499805 L6.38863452,13.2499805 L6.38863452,19.3018933 C6.38863452,19.8153852 6.13186461,20.0721551 5.61837275,20.0721551 C5.10488089,20.0721551 4.84811098,19.8153852 4.84811098,19.3018933 L4.84811098,13.2499805 L4.84811098,11.7095049 L4.84811098,5.65759217 C4.84811098,5.14410031 5.10488089,4.88733041 5.61837275,4.88733041 C6.13186461,4.88733041 6.38863452,5.14410031 6.38863452,5.65759217 L6.38863452,11.709505 L11.1567937,11.709505 L11.1567937,5.65759217 C11.1567937,5.14410031 11.4135636,4.88733041 11.9270555,4.88733041 C12.4405473,4.88733041 12.6973172,5.14410031 12.6973172,5.65759217 L12.6973172,11.709505 Z M21.1699568,18.2932812 C20.5218202,19.479325 19.5194918,20.0721551 18.1623479,20.0721551 C16.8419472,20.0598274 15.881974,19.5159722 15.2831,18.4400136 C14.5862285,17.2662974 14.2377927,15.2796284 14.2377927,12.4797667 C14.2377927,9.60680258 14.5679049,7.66891644 15.2281293,6.66625227 C16.0104309,5.48049622 16.9886796,4.88737836 18.1623959,4.88737836 C19.4827967,4.89970602 20.4975486,5.49886775 21.2067478,6.68462384 C21.7935819,7.71160756 22.0870469,9.64354569 22.0870469,12.4797667 C22.0746234,15.291956 21.7689267,17.2296023 21.1699568,18.2932812 Z M30.7063231,6.42785394 L28.3222435,6.42785394 L28.3222435,19.3018933 C28.3222435,19.8153852 28.0654736,20.0721551 27.5519817,20.0721551 C27.0384899,20.0721551 26.78172,19.8153852 26.78172,19.3018933 L26.78172,6.42785394 L24.3976404,6.42785394 C23.8841486,6.42785394 23.6273787,6.17108403 23.6273787,5.65759217 C23.6273787,5.14410031 23.8841486,4.88733041 24.3976404,4.88733041 L26.78172,4.88733041 L28.3221956,4.88733041 L30.7062752,4.88733041 C31.2197671,4.88733041 31.476537,5.14410031 31.476537,5.65759217 C31.476537,6.17108403 31.219815,6.42785394 30.7063231,6.42785394 Z" id="Shape"></path>
                </g>
            </g>
        </g>
    </g>
</svg>