<?xml version="1.0" encoding="UTF-8"?>
<svg width="100px" height="100px" viewBox="0 0 100 100" version="1.1" xmlns="http://www.w3.org/2000/svg" xmlns:xlink="http://www.w3.org/1999/xlink">
    <!-- Generator: Sketch 51.2 (57519) - http://www.bohemiancoding.com/sketch -->
    <title>icon_head</title>
    <desc>Created with Sketch.</desc>
    <defs>
        <rect id="path-1" x="0" y="0" width="100" height="100" rx="16"></rect>
    </defs>
    <g id="定稿" stroke="none" stroke-width="1" fill="none" fill-rule="evenodd">
        <g id="我的_未登录" transform="translate(-50.000000, -110.000000)">
            <g id="登录信息" transform="translate(20.000000, 80.000000)">
                <g id="icon_head" transform="translate(30.000000, 30.000000)">
                    <rect id="Rectangle-10" fill="#FEF3E2" fill-rule="nonzero" x="0" y="0" width="100" height="100" rx="16"></rect>
                    <mask id="mask-2" fill="white">
                        <use xlink:href="#path-1"></use>
                    </mask>
                    <use id="Mask" fill="#FEF3E2" fill-rule="nonzero" xlink:href="#path-1"></use>
                    <g id="Group" mask="url(#mask-2)" fill-rule="nonzero">
                        <g transform="translate(0.000000, 7.000000)">
                            <path d="M81.0810811,62.1361257 C81.0810811,79.294543 67.1656071,93.2041885 50,93.2041885 C32.8343929,93.2041885 18.9189189,79.294543 18.9189189,62.1361257 L18.9189189,31.0680628 C18.9189189,13.9096455 32.8343929,0 50,0 C67.1656071,0 81.0810811,13.9096455 81.0810811,31.0680628 L81.0810811,62.1361257 Z" id="Combined-Shape" fill="#FFB740"></path>
                            <path d="M43.0624472,53.408377 L58.0355258,53.408377 L58.5319577,66.7348576 C58.6244583,69.2179908 60.3979556,71.3181976 62.830519,71.8252897 L66.2703231,72.5423511 C63.3932248,78.7044467 60.6482924,82.8081388 58.0355258,84.8534272 C55.4227592,86.8987156 50.8618384,86.8987156 44.3527634,84.8534272 L33.7837838,72.5423511 L38.0177735,71.7487691 C40.4784259,71.287566 42.3004005,69.1970613 42.4210924,66.6964709 L43.0624472,53.408377 Z" id="Rectangle-3" fill="#FAE8D5"></path>
                            <path d="M18.9531313,121.968055 C8.00936959,120.459493 0.293601028,119.256315 0.293601028,114.161562 L11.337898,81.6575849 C14.2450103,75.848961 22.7087455,74.9096326 26.7548553,73.7549725 C29.4522619,72.9851991 32.3646281,72.3072561 35.491954,71.7211436 L41.3095373,81.5222252 C42.2833516,83.1628434 44.0499139,84.1685959 45.9577773,84.1685959 L54.6047825,84.1685959 C56.6007708,84.1685959 58.4343201,83.0686544 59.3738742,81.3076299 L64.4885238,71.7211436 C69.0457841,72.9945536 72.9859492,74.0237113 76.3090189,74.8086169 C81.2936235,75.9859752 86.5377158,76.8170651 89.4448283,81.6575849 C96.442273,99.9304013 99.9409953,110.76506 99.9409953,114.161562 C99.9409953,119.256315 91.6873009,120.794589 78.3308727,123.12496 C64.9432697,125.460771 35.8981114,124.303866 18.9531313,121.968055 Z" id="Shape" fill="#FFFFFF"></path>
                            <path d="M50.4355529,65.469665 C48.182002,65.469665 44.6823645,65.2369086 42.7401389,64.6841545 C33.291488,61.9950844 29.0540541,53.1803811 29.0540541,42.2217687 C29.0540541,38.7320543 29.0540541,38.261003 29.0540541,34.5322153 C29.0540541,25.814963 71.8170517,25.8743134 71.8170517,34.7380336 C71.8170517,39.1489443 71.8170517,38.8136248 71.8170517,42.2217687 C71.8170517,53.1767044 67.9717203,61.9918746 58.7686303,64.6841545 C56.8731576,65.2386577 52.5600038,65.469665 50.4355529,65.469665 Z" id="Path" fill="#FCF6F1"></path>
                        </g>
                    </g>
                </g>
            </g>
        </g>
    </g>
</svg>