<?xml version="1.0" encoding="UTF-8"?>
<svg width="48px" height="48px" viewBox="0 0 48 48" version="1.1" xmlns="http://www.w3.org/2000/svg" xmlns:xlink="http://www.w3.org/1999/xlink">
    <!-- Generator: Sketch 51.2 (57519) - http://www.bohemiancoding.com/sketch -->
    <title>icon_id</title>
    <desc>Created with Sketch.</desc>
    <defs>
        <linearGradient x1="50%" y1="0%" x2="50%" y2="100%" id="linearGradient-1">
            <stop stop-color="#EF6B6B" offset="0%"></stop>
            <stop stop-color="#FF98AB" offset="100%"></stop>
        </linearGradient>
    </defs>
    <g id="定稿" stroke="none" stroke-width="1" fill="none" fill-rule="evenodd">
        <g id="申请贷款" transform="translate(-40.000000, -607.000000)" fill-rule="nonzero">
            <g id="认证列表" transform="translate(30.000000, 391.000000)">
                <g id="icon_id" transform="translate(10.000000, 216.000000)">
                    <rect id="Rectangle-13" fill="url(#linearGradient-1)" x="0" y="0" width="48" height="48" rx="8"></rect>
                    <path d="M39,31.2556138 L39,16.155439 C39,14.9640984 37.9242974,14 36.9440635,14 L11.2186366,14 C9.62659678,14 9.00000004,14.9640984 9,16.155439 L9,32.2439155 C9,33.4352561 10.0340191,34.3993545 11.3087266,34.3993545 L37,34.3993545 C38.1045695,34.3993545 39,33.503924 39,32.3993545 L39,31.2556138 Z M36.0566089,19.6521735 L36.0566089,20.3185712 C36.0566089,20.8708559 35.6088936,21.3185712 35.0566089,21.3185712 L28.1296221,21.3185712 C27.5773374,21.3185712 27.1296221,20.8708559 27.1296221,20.3185712 L27.1296221,19.6521735 C27.1296221,19.0998887 27.5773374,18.6521735 28.1296221,18.6521735 L35.0566089,18.6521735 C35.6088936,18.6521735 36.0566089,19.0998887 36.0566089,19.6521735 Z M28.1296221,23.2564206 L35.0566089,23.2564206 C35.6088936,23.2564206 36.0566089,23.7041358 36.0566089,24.2564206 L36.0566089,24.9228183 C36.0566089,25.4751031 35.6088936,25.9228183 35.0566089,25.9228183 L28.1296221,25.9228183 C27.5773374,25.9228183 27.1296221,25.4751031 27.1296221,24.9228183 L27.1296221,24.2564206 C27.1296221,23.7041358 27.5773374,23.2564206 28.1296221,23.2564206 Z M28.1296221,27.6277108 L35.0566089,27.6277108 C35.6088936,27.6277108 36.0566089,28.0754261 36.0566089,28.6277108 L36.0566089,29.2941086 C36.0566089,29.8463933 35.6088936,30.2941086 35.0566089,30.2941086 L28.1296221,30.2941086 C27.5773374,30.2941086 27.1296221,29.8463933 27.1296221,29.2941086 L27.1296221,28.6277108 C27.1296221,28.0754261 27.5773374,27.6277108 28.1296221,27.6277108 Z M11.9312895,31.2246873 C11.9312895,31.2246873 11.8990184,29.3448971 12.3252656,28.9455425 C12.7528574,28.5475326 12.9263144,27.8295011 15.1906683,27.5027565 C17.4550222,27.1760118 17.2183676,26.0115638 17.2909776,26.0478687 C17.2775313,25.6068307 17.2331585,24.9856125 17.2331586,24.9856125 C17.2331586,24.9856125 16.0539196,24.4975124 15.7056609,23.5307248 C14.9768724,23.2443189 15.0736856,23.0614495 15.0024204,22.6903321 C15.0024204,22.6903321 14.7819013,21.1910716 15.2740353,21.2219981 C15.2740353,21.2219981 15.5940568,21.2219981 15.5160683,20.8764286 C15.4905204,20.303617 15.4905204,19.1902649 15.5295146,18.8097351 C15.5685088,18.426516 15.8589485,17.392497 16.6805164,17.240554 C17.5020842,17.0872663 17.1726503,17.1652548 17.4469544,17.1249159 C17.7212586,17.0872663 17.6432701,16.9339787 18.1515396,16.9339787 L19.2070728,16.7228721 C19.7153422,16.7228721 20.0407422,17.5336829 20.3150464,17.5740218 C20.5893505,17.6116713 20.6538927,17.4570391 21.2159473,17.5592309 C22.0375151,17.7125185 21.9232217,18.8043566 21.962216,19.1875756 C22.0012102,19.56945 22.0738201,20.6088477 21.9958316,20.9530725 C21.9178432,21.2972973 22.1612209,21.2596477 22.1612209,21.2596477 C22.7488235,21.2596477 22.5646094,22.7279817 22.5646094,22.7279817 C22.4745193,23.1165793 22.2284523,23.1636412 21.6825333,23.5011429 C21.3356192,24.4679306 20.2263009,25.1792389 20.2263009,25.1792389 C20.2263009,25.1792389 20.2209224,25.9806373 20.2168886,26.155439 C20.2330241,26.2240151 20.0904935,27.2217292 22.0213796,27.5027565 C24.2857335,27.8295011 24.6770203,28.5475326 25.1032675,28.9455425 C25.5308592,29.3448971 25.5765766,31.2246873 25.5765766,31.2246873 L11.9312895,31.2246873 Z" id="Shape" fill="#FFFFFF"></path>
                </g>
            </g>
        </g>
    </g>
</svg>