<?xml version="1.0" encoding="UTF-8"?>
<svg width="48px" height="48px" viewBox="0 0 48 48" version="1.1" xmlns="http://www.w3.org/2000/svg" xmlns:xlink="http://www.w3.org/1999/xlink">
    <!-- Generator: Sketch 51.2 (57519) - http://www.bohemiancoding.com/sketch -->
    <title>icon_operator</title>
    <desc>Created with Sketch.</desc>
    <defs>
        <linearGradient x1="50%" y1="2.79308165%" x2="50%" y2="100%" id="linearGradient-1">
            <stop stop-color="#FBC72A" offset="0%"></stop>
            <stop stop-color="#FFDA6A" offset="100%"></stop>
        </linearGradient>
    </defs>
    <g id="定稿" stroke="none" stroke-width="1" fill="none" fill-rule="evenodd">
        <g id="申请贷款" transform="translate(-40.000000, -511.000000)" fill-rule="nonzero">
            <g id="认证列表" transform="translate(30.000000, 391.000000)">
                <g id="icon_operator" transform="translate(10.000000, 120.000000)">
                    <rect id="Rectangle-13" fill="url(#linearGradient-1)" x="0" y="0" width="48" height="48" rx="8"></rect>
                    <g id="手机-填充" transform="translate(8.000000, 8.000000)">
                        <rect id="Rectangle-path" fill="#000000" opacity="0" x="0" y="0" width="32" height="32"></rect>
                        <path d="M23,1 L9,1 C7.3,1 6,2.3 6,4 L6,28 C6,29.7 7.3,31 9,31 L23,31 C24.7,31 26,29.7 26,28 L26,4 C26,2.3 24.7,1 23,1 Z M24,28 C24,28.6 23.6,29 23,29 L9,29 C8.4,29 8,28.6 8,28 L8,4 C8,3.4 8.4,3 9,3 L23,3 C23.6,3 24,3.4 24,4 L24,28 Z" id="Shape" fill="#FFFFFF"></path>
                        <path d="M22,4 L20,4 C19.7,4.9 19,5.5 18.2,5.5 L13.7,5.5 C13,5.5 12.3,4.9 12,4 L10,4 C9.4,4 9,4.4 9,5 L9,27 C9,27.6 9.4,28 10,28 L22,28 C22.6,28 23,27.6 23,27 L23,5 C23,4.4 22.6,4 22,4 Z M18.2,26.8 L13.7,26.8 C13.3,26.8 12.9,26.5 12.9,26 C12.9,25.6 13.2,25.2 13.7,25.2 L18.2,25.2 C18.6,25.2 19,25.5 19,26 C19,26.4 18.7,26.8 18.2,26.8 Z" id="Shape" fill="#FFFFFF"></path>
                    </g>
                </g>
            </g>
        </g>
    </g>
</svg>