<?xml version="1.0" encoding="UTF-8"?>
<svg width="28px" height="31px" viewBox="0 0 28 31" version="1.1" xmlns="http://www.w3.org/2000/svg" xmlns:xlink="http://www.w3.org/1999/xlink">
    <!-- Generator: Sketch 51.2 (57519) - http://www.bohemiancoding.com/sketch -->
    <title>icon_订单</title>
    <desc>Created with Sketch.</desc>
    <defs></defs>
    <g id="定稿" stroke="none" stroke-width="1" fill="none" fill-rule="evenodd">
        <g id="我的_高级会员" transform="translate(-56.000000, -729.000000)" fill-rule="nonzero">
            <g id="功能列表" transform="translate(20.000000, 700.000000)">
                <g id="icon_订单" transform="translate(32.000000, 26.000000)">
                    <rect id="Rectangle-path" fill="#000000" opacity="0" x="0" y="0" width="36" height="36"></rect>
                    <path d="M6.80002824,33.5525281 C6.13589391,33.5525302 5.49905198,33.2829907 5.03002657,32.8033856 C4.56100117,32.3237805 4.29834236,31.6735294 4.30000787,30.9961152 L4.30000787,7.06356614 C4.29968143,6.38569459 4.56345628,5.73547293 5.03327045,5.25602762 C5.50308462,4.77658231 6.14042793,4.50721298 6.80500871,4.50721306 L9.36250102,4.50721306 C10.066669,4.50721306 10.63751,5.07805402 10.63751,5.78222203 C10.63751,6.48649748 10.06691,7.05759888 9.36263481,7.05821748 L9.36263479,7.05819406 C7.65694293,7.05969224 6.80274074,7.06148294 6.80002824,7.06356614 L6.80002824,31.0025102 L29.1311266,31.0025102 C29.1336462,31.0025102 29.1311266,7.06356614 29.1236266,7.05723099 L26.6898843,7.05723099 C25.9857163,7.05723099 25.4148754,6.48639003 25.4148754,5.78222203 C25.4148754,5.07805402 25.9857163,4.50721306 26.6898843,4.50721306 L29.123568,4.50721306 C30.5086075,4.50721306 31.6310884,5.64831725 31.6310884,7.06356614 L31.6310884,30.9961152 C31.6310884,32.4075391 30.5185685,33.5525281 29.131068,33.5525281 L6.80002824,33.5525281 Z M12.575009,14 L24.024991,14 C24.729159,14 25.3,14.570841 25.3,15.275009 C25.3,15.979177 24.729159,16.5500179 24.024991,16.5500179 L12.575009,16.5500179 C11.870841,16.5500179 11.3,15.979177 11.3,15.275009 C11.3,14.570841 11.870841,14 12.575009,14 Z M12.575009,19 L24.024991,19 C24.729159,19 25.3,19.570841 25.3,20.275009 C25.3,20.979177 24.729159,21.5500179 24.024991,21.5500179 L12.575009,21.5500179 C11.870841,21.5500179 11.3,20.979177 11.3,20.275009 C11.3,19.570841 11.870841,19 12.575009,19 Z M25.3,25.275009 C25.3,25.979177 24.729159,26.5500179 24.024991,26.5500179 L12.575009,26.5500179 C11.870841,26.5500179 11.3,25.979177 11.3,25.275009 C11.3,24.570841 11.870841,24 12.575009,24 L24.024991,24 C24.729159,24 25.3,24.570841 25.3,25.275009 Z M14.3,3 L22.3,3 C23.4045695,3 24.3,3.8954305 24.3,5 L24.3,8 C24.3,9.1045695 23.4045695,10 22.3,10 L14.3,10 C13.1954305,10 12.3,9.1045695 12.3,8 L12.3,5 C12.3,3.8954305 13.1954305,3 14.3,3 Z M22.3,7.60254601 L22.3,5.5 C22.3,5.22385763 22.0761424,5 21.8,5 L14.8,5 C14.5238576,5 14.3,5.22385763 14.3,5.5 L14.3,7.60254601 C14.3,7.87868839 14.5238576,8.10254601 14.8,8.10254601 L21.8,8.10254601 C22.0761424,8.10254601 22.3,7.87868839 22.3,7.60254601 Z" id="Shape" fill="#F5A623"></path>
                </g>
            </g>
        </g>
    </g>
</svg>