<?xml version="1.0" encoding="UTF-8"?>
<svg width="28px" height="27px" viewBox="0 0 28 27" version="1.1" xmlns="http://www.w3.org/2000/svg" xmlns:xlink="http://www.w3.org/1999/xlink">
    <!-- Generator: Sketch 51.2 (57519) - http://www.bohemiancoding.com/sketch -->
    <title>icon_推荐</title>
    <desc>Created with Sketch.</desc>
    <defs></defs>
    <g id="定稿" stroke="none" stroke-width="1" fill="none" fill-rule="evenodd">
        <g id="我的_高级会员" transform="translate(-56.000000, -819.000000)" fill-rule="nonzero">
            <g id="功能列表" transform="translate(20.000000, 700.000000)">
                <g id="icon_推荐" transform="translate(32.000000, 114.000000)">
                    <rect id="Rectangle-path" fill="#000000" opacity="0" x="0" y="0" width="36" height="36"></rect>
                    <path d="M31.2073937,13.7602458 C30.5323038,12.9259367 29.5292223,12.4482788 28.4560842,12.4482788 L23.6890584,12.4482788 L23.6890584,8.59517175 C23.6890584,6.6112993 22.0745747,5 20.0938867,5 L15.2982014,5 L11.1425777,12.4514632 L4,12.4514632 L4,31.8093454 L13.4289668,31.8093454 L13.4289668,13.8494086 L16.8712881,7.67806859 L20.097071,7.67806859 C20.6065728,7.67806859 21.0173586,8.09203877 21.0173586,8.59835614 L21.0173586,15.1295317 L28.4560842,15.1295317 C28.8159198,15.1295317 29.0356424,15.3301481 29.131174,15.4511547 C29.22989,15.5721614 29.3827405,15.8269123 29.3063152,16.1771947 L26.5868496,29.1344612 L16.1675388,29.1344612 L16.1675388,31.8093454 L28.7554165,31.8093454 L31.9238805,16.7249091 C32.1436031,15.6740617 31.8824835,14.5945549 31.2073937,13.7602458 Z M6.67488421,29.1312768 L6.67488421,15.1263474 L10.7540826,15.1263474 L10.7540826,29.1344612 L6.67488421,29.1344612 L6.67488421,29.1312768 Z" id="Shape" fill="#F5A623"></path>
                </g>
            </g>
        </g>
    </g>
</svg>