<?xml version="1.0" encoding="UTF-8"?>
<svg width="48px" height="48px" viewBox="0 0 48 48" version="1.1" xmlns="http://www.w3.org/2000/svg" xmlns:xlink="http://www.w3.org/1999/xlink">
    <!-- Generator: Sketch 51.2 (57519) - http://www.bohemiancoding.com/sketch -->
    <title>icon_sard</title>
    <desc>Created with Sketch.</desc>
    <defs>
        <linearGradient x1="50%" y1="5.01869164%" x2="50%" y2="100%" id="linearGradient-1">
            <stop stop-color="#DF68C1" offset="0%"></stop>
            <stop stop-color="#FFAAF8" offset="100%"></stop>
        </linearGradient>
    </defs>
    <g id="定稿" stroke="none" stroke-width="1" fill="none" fill-rule="evenodd">
        <g id="申请贷款" transform="translate(-40.000000, -703.000000)" fill-rule="nonzero">
            <g id="认证列表" transform="translate(30.000000, 391.000000)">
                <g id="icon_sard" transform="translate(10.000000, 312.000000)">
                    <rect id="Rectangle-13" fill="url(#linearGradient-1)" x="0" y="0" width="48" height="48" rx="8"></rect>
                    <path d="M38.8449233,19.9185914 L10.0485233,19.9185914 C10.0395233,20.0503514 10.0280033,20.1392714 10.0280033,20.2278314 C10.0269233,24.3264314 10.0258433,28.4253914 10.0305233,32.5243514 C10.0308833,32.7518714 10.0488833,32.9869514 10.1072033,33.2058314 C10.4780033,34.6019114 11.4946433,35.3215514 13.0894433,35.3219114 C20.6850833,35.3233514 28.2807233,35.3237114 35.8763633,35.3183114 C36.1824513,35.3205417 36.4877174,35.2863413 36.7857233,35.2164314 C38.0853233,34.8963914 38.8773233,33.8779514 38.8816433,32.4656714 C38.8946033,28.3796714 38.8863233,24.2936714 38.8845233,20.2076714 C38.8841633,20.1119114 38.8589633,20.0157914 38.8449233,19.9185914 Z M19.2328433,29.6508314 C19.2252833,29.7332714 19.0362833,29.8596314 18.9282833,29.8621514 C18.1870433,29.8808714 17.4450833,29.8722314 16.7034833,29.8722314 C15.4118033,29.8722314 14.1201233,29.8632314 12.8288033,29.8787114 C12.5192033,29.8823114 12.4223633,29.7793514 12.4421633,29.4823514 C12.4634033,29.1669914 12.4468433,28.8491114 12.4468433,28.5074714 L19.2468833,28.5074714 C19.2476033,28.9149914 19.2663233,29.2854314 19.2328433,29.6508314 Z M24.8052833,25.5684314 L24.3412433,25.5684314 C20.5367633,25.5684314 16.7322833,25.5623114 12.9281633,25.5774314 C12.5357633,25.5788714 12.3982433,25.4730314 12.4414433,25.0838714 C12.4720433,24.8073914 12.4472033,24.5244314 12.4472033,24.2011514 L24.8052833,24.2011514 L24.8052833,25.5684314 Z M38.7920033,17.7398714 L10.0326833,17.7398714 C10.0758833,16.7372714 9.84620325,15.7278314 10.2076433,14.7727514 C10.6151633,13.6959914 11.4575633,13.1279114 12.6034433,13.0188314 C12.7560833,13.0044314 12.9101633,13.0008314 13.0638833,13.0008314 C20.6339633,13.0001114 28.2044033,12.9993914 35.7744833,13.0008314 C36.7353233,13.0008314 37.5957233,13.2503114 38.2145633,14.0473514 C38.5497233,14.4789914 38.7884033,14.9545514 38.7916433,15.5172314 C38.7948833,16.2444314 38.7920033,16.9719914 38.7920033,17.7398714 Z" id="Shape" fill="#FFFFFF"></path>
                </g>
            </g>
        </g>
    </g>
</svg>