<?xml version="1.0" encoding="UTF-8"?>
<svg width="25px" height="32px" viewBox="0 0 25 32" version="1.1" xmlns="http://www.w3.org/2000/svg" xmlns:xlink="http://www.w3.org/1999/xlink">
    <!-- Generator: Sketch 51.2 (57519) - http://www.bohemiancoding.com/sketch -->
    <title>icon_sell</title>
    <desc>Created with Sketch.</desc>
    <defs></defs>
    <g id="定稿" stroke="none" stroke-width="1" fill="none" fill-rule="evenodd">
        <g id="首页_高级会员" transform="translate(-30.000000, -1242.000000)">
            <g id="优惠购买列表" transform="translate(0.000000, 1222.000000)">
                <g id="icon_sell" transform="translate(24.000000, 18.000000)">
                    <rect id="Rectangle-path" fill="#000000" fill-rule="nonzero" opacity="0" x="0" y="0" width="36" height="36"></rect>
                    <g id="Group-3" transform="translate(6.000000, 2.000000)" fill="#7C89A4">
                        <path d="M24.7492187,31.7359375 L0.60390625,31.7359375 L0.60390625,17.2164062 C0.60390625,16.5308594 1.159375,15.9789062 1.84140625,15.9789062 C2.5234375,15.9789062 3.07890625,16.534375 3.07890625,17.2164062 L3.07890625,29.2574219 L22.2707031,29.2574219 L22.2707031,9.99179687 L3.08242187,9.99179687 L3.08242187,12.2628906 C3.08242187,12.9484375 2.52695312,13.5003906 1.84492187,13.5003906 C1.16289062,13.5003906 0.607421875,12.9449219 0.607421875,12.2628906 L0.607421875,9.99179687 C0.607421875,8.62773437 1.71835937,7.51679687 3.08242187,7.51679687 L22.2742187,7.51679687 C23.6382812,7.51679687 24.7492187,8.62773437 24.7492187,9.99179687 L24.7492187,31.7359375 Z" id="Shape" fill-rule="nonzero"></path>
                        <rect id="Rectangle-5" x="6" y="22" width="14" height="3" rx="1.5"></rect>
                        <path d="M18.8253906,14.171875 C18.1398437,14.171875 17.5878906,13.6164062 17.5878906,12.934375 L17.5878906,7.15117187 C17.5878906,4.61640625 15.5277344,2.55625 12.9929687,2.55625 C10.4582031,2.55625 8.39804687,4.61640625 8.39804687,7.15117187 L8.39804687,12.934375 C8.39804687,13.6199219 7.84257812,14.171875 7.16054687,14.171875 C6.475,14.171875 5.92304687,13.6164062 5.92304687,12.934375 L5.92304687,7.15117187 C5.92304687,3.25234375 9.09414062,0.08125 12.9929687,0.08125 C16.8917969,0.08125 20.0664062,3.25585937 20.0664062,7.15117187 L20.0664062,12.934375 C20.0664062,13.6199219 19.5109375,14.171875 18.8253906,14.171875 Z" id="Shape" fill-rule="nonzero"></path>
                    </g>
                </g>
            </g>
        </g>
    </g>
</svg>