<?xml version="1.0" encoding="UTF-8"?>
<svg width="28px" height="26px" viewBox="0 0 28 26" version="1.1" xmlns="http://www.w3.org/2000/svg" xmlns:xlink="http://www.w3.org/1999/xlink">
    <!-- Generator: Sketch 51.2 (57519) - http://www.bohemiancoding.com/sketch -->
    <title>icon_vip</title>
    <desc>Created with Sketch.</desc>
    <defs></defs>
    <g id="定稿" stroke="none" stroke-width="1" fill="none" fill-rule="evenodd">
        <g id="加入会员" transform="translate(-196.000000, -483.000000)" fill-rule="nonzero">
            <g id="会员套餐" transform="translate(0.000000, 344.000000)">
                <g id="icon_vip" transform="translate(192.000000, 134.000000)">
                    <rect id="Rectangle-path" fill="#000000" opacity="0" x="0" y="0" width="36" height="36"></rect>
                    <path d="M17.775,30.95 C16.275,30.95 14.925,30.275 14.1,29 L4.95,16.95 C3.97500001,15.6 3.825,13.8 4.5,12.3 L6.00000001,8.92500001 C6.90000001,6.975 8.85000002,5.70000002 10.95,5.69999999 L24.825,5.69999999 C26.925,5.69999999 28.875,6.975 29.775,8.92500001 L31.275,12.3 C31.95,13.875 31.8,15.675 30.825,17.025 L21.375,29.075 C20.55,30.275 19.2,30.95 17.775,30.95 Z M11.4424187,8.60788818 C10.2445504,8.60788818 9.18760782,9.31251657 8.69436795,10.3694592 L7.28511114,13.540287 C6.93279692,14.3153783 7.00325979,15.1609323 7.49649966,15.8655607 L16.0929662,27.1260949 C16.5157432,27.6897976 17.0794459,28.0421118 17.7840743,28.0421118 C18.4887027,28.0421118 19.1228683,27.6897976 19.4751825,27.1965577 L28.3535003,15.8655607 C28.8467402,15.1609323 28.9172031,14.3153783 28.5648889,13.540287 L27.155632,10.3694592 C26.6623922,9.3125166 25.6054496,8.60788821 24.4075813,8.60788818 L11.4424187,8.60788818 Z" id="Shape" fill="#FF7E0A"></path>
                    <path d="M22.8387097,15 L13.1612903,15 C12.5419355,15 12,14.3 12,13.5 C12,12.7 12.5419355,12 13.1612903,12 L22.8387097,12 C23.4580645,12 24,12.7 24,13.5 C24,14.3 23.4580645,15 22.8387097,15 Z" id="Shape" fill="#FF7E0A"></path>
                </g>
            </g>
        </g>
    </g>
</svg>