<?xml version="1.0" encoding="UTF-8"?>
<svg width="128px" height="62px" viewBox="0 0 128 62" version="1.1" xmlns="http://www.w3.org/2000/svg" xmlns:xlink="http://www.w3.org/1999/xlink">
    <!-- Generator: Sketch 51.2 (57519) - http://www.bohemiancoding.com/sketch -->
    <title>img_wallet</title>
    <desc>Created with Sketch.</desc>
    <defs></defs>
    <g id="定稿" stroke="none" stroke-width="1" fill="none" fill-rule="evenodd">
        <g id="我的_未认证" transform="translate(-40.000000, -284.000000)" fill-rule="nonzero">
            <g id="认证入口" transform="translate(20.000000, 260.000000)">
                <g id="img_wallet" transform="translate(20.000000, 24.000000)">
                    <path d="M32.6680976,0.828292683 L105.35961,0.828292683 C108.444098,0.828292683 110.954146,3.32585366 110.954146,6.42282927 L110.954146,51.1541463 C110.954146,54.2386341 108.456585,56.7486829 105.35961,56.7486829 L32.6680976,56.7486829 C29.5836098,56.7486829 27.073561,54.251122 27.073561,51.1541463 L27.073561,6.42282927 C27.073561,3.33834146 29.5836098,0.828292683 32.6680976,0.828292683 Z" id="Shape" fill="#FF7E0A"></path>
                    <path d="M89.987122,19.0105366 L110.954146,19.0105366 L110.954146,38.5789268 L89.987122,38.5789268 C84.5799024,38.5789268 80.1966829,34.1957073 80.1966829,28.7884878 C80.1966829,23.3812683 84.5799024,19.0105366 89.987122,19.0105366 Z" id="Shape" fill="#FFA21D"></path>
                    <path d="M89.987122,23.1939512 C93.0716098,23.1939512 95.5816585,25.6915122 95.5816585,28.7884878 C95.5816585,31.8729756 93.0840976,34.3830244 89.987122,34.3830244 C86.9026341,34.3830244 84.3925854,31.8854634 84.3925854,28.7884878 C84.3925854,25.704 86.8901463,23.1939512 89.987122,23.1939512 Z" id="Shape" fill="#FFCF80"></path>
                    <path d="M113.913756,47.2579512 C121.63122,47.2579512 127.88761,50.3923902 127.88761,54.251122 C127.88761,58.1098537 121.63122,61.2442927 113.913756,61.2442927 C106.196293,61.2442927 99.9399024,58.1098537 99.9399024,54.251122 C99.9274146,50.3923902 106.183805,47.2579512 113.913756,47.2579512 Z" id="Shape" fill="#FFB400"></path>
                    <path d="M113.913756,47.2579512 C121.63122,47.2579512 127.88761,49.7555122 127.88761,52.8524878 C127.88761,55.9369756 121.63122,58.4470244 113.913756,58.4470244 C106.196293,58.4470244 99.9399024,55.9494634 99.9399024,52.8524878 C99.9274146,49.7555122 106.183805,47.2579512 113.913756,47.2579512 Z" id="Shape" fill="#FFD200"></path>
                    <path d="M113.913756,42.7123902 C121.63122,42.7123902 127.88761,45.8468293 127.88761,49.705561 C127.88761,53.5642927 121.63122,56.6987317 113.913756,56.6987317 C106.196293,56.6987317 99.9399024,53.5642927 99.9399024,49.705561 C99.9274146,45.8468293 106.183805,42.7123902 113.913756,42.7123902 Z" id="Shape" fill="#FFB400"></path>
                    <path d="M113.913756,42.7123902 C121.63122,42.7123902 127.88761,45.2099512 127.88761,48.3069268 C127.88761,51.3914146 121.63122,53.9014634 113.913756,53.9014634 C106.196293,53.9014634 99.9399024,51.4039024 99.9399024,48.3069268 C99.9274146,45.222439 106.183805,42.7123902 113.913756,42.7123902 Z" id="Shape" fill="#FFD200"></path>
                    <path d="M113.913756,37.7672195 C121.63122,37.7672195 127.88761,40.9016585 127.88761,44.7603902 C127.88761,48.619122 121.63122,51.753561 113.913756,51.753561 C106.196293,51.753561 99.9399024,48.619122 99.9399024,44.7603902 C99.9399024,40.9016585 106.183805,37.7672195 113.913756,37.7672195 Z" id="Shape" fill="#FFB400"></path>
                    <path d="M113.913756,37.7672195 C121.63122,37.7672195 127.88761,40.2647805 127.88761,43.3617561 C127.88761,46.4462439 121.63122,48.9562927 113.913756,48.9562927 C106.196293,48.9562927 99.9399024,46.4587317 99.9399024,43.3617561 C99.9274146,40.2647805 106.183805,37.7672195 113.913756,37.7672195 Z" id="Shape" fill="#FFD200"></path>
                    <path d="M11.7010732,53.227122 C11.7010732,57.0893435 17.9573806,60.2202927 25.6749268,60.2202927 C33.3924731,60.2202927 39.6487805,57.0893435 39.6487805,53.227122 C39.6487805,49.3649004 33.3924731,46.2339512 25.6749268,46.2339512 C17.9573806,46.2339512 11.7010732,49.3649004 11.7010732,53.227122 Z" id="Shape" fill="#FFB400"></path>
                    <path d="M25.6749268,45.5970732 C33.3923902,45.5970732 39.6487805,48.0946341 39.6487805,51.1916098 C39.6487805,54.2760976 33.3923902,56.7861463 25.6749268,56.7861463 C17.9574634,56.7861463 11.7010732,54.2760976 11.7010732,51.1916098 C11.7010732,48.107122 17.9574634,45.5970732 25.6749268,45.5970732 Z" id="Shape" fill="#FFD200"></path>
                    <path d="M9.95278049,46.7209756 C16.6337561,42.8622439 23.6269268,42.4376585 25.5500488,45.7843902 C27.4856585,49.131122 24.126439,53.8764878 17.3705366,57.6602927 C5.632,64.2538537 2.60995122,60.8446829 0.674341463,57.510439 C-1.24878049,54.1637073 3.25931707,50.5797073 9.95278049,46.7209756 Z" id="Shape" fill="#FFB400"></path>
                    <path d="M9.64058537,46.1340488 C16.321561,42.2753171 23.0025366,41.3137561 24.5385366,43.9861463 C26.0870244,46.6585366 21.9160976,51.9533659 15.2226341,55.8120976 C8.55414634,59.6708293 1.87317073,60.6323902 0.337170732,57.96 C-1.21131707,55.2876098 2.95960976,49.9927805 9.64058537,46.1340488 Z" id="Shape" fill="#FFD200"></path>
                </g>
            </g>
        </g>
    </g>
</svg>