<?xml version="1.0" encoding="UTF-8"?>
<svg width="46px" height="46px" viewBox="0 0 46 46" version="1.1" xmlns="http://www.w3.org/2000/svg" xmlns:xlink="http://www.w3.org/1999/xlink">
    <!-- Generator: Sketch 51.2 (57519) - http://www.bohemiancoding.com/sketch -->
    <title>icon_wechat</title>
    <desc>Created with Sketch.</desc>
    <defs></defs>
    <g id="定稿" stroke="none" stroke-width="1" fill="none" fill-rule="evenodd">
        <g id="加入会员" transform="translate(-43.000000, -835.000000)" fill="#59B64C" fill-rule="nonzero">
            <g id="支付方式" transform="translate(0.000000, 636.000000)">
                <g id="icon_wechat" transform="translate(43.000000, 199.000000)">
                    <path d="M35.1764785,0 L10.8235215,0 C4.84554297,0 0,4.84554297 0,10.8235215 L0,35.1764785 C0,41.154457 4.84554297,46 10.8235215,46 L35.1764785,46 C41.154457,46 46,41.154457 46,35.1764785 L46,10.8235215 C46,4.84554297 41.154457,0 35.1764785,0 Z M23,35.2691523 C21.2851523,35.2691523 19.6338691,35.0303477 18.0888262,34.5906523 C17.6317651,34.6732414 17.1854245,34.8068979 16.7581953,34.9891094 L13.7445215,36.8805 C12.8516094,37.4778262 12.5613691,37.252543 12.8738906,36.2046953 L13.5436309,33.840457 C13.5895064,33.3734891 13.5479788,32.9020613 13.4211738,32.4503047 C9.78515234,30.0244785 7.44117383,26.2531523 7.44117383,22.0319785 C7.44117383,14.7409785 14.4304785,8.79413086 23,8.79413086 C28.2271094,8.79413086 32.8663262,11.0068477 35.6898906,14.3871738 L21.1877168,21.275 C20.1878906,21.8763691 19.1881094,22.0028691 18.1882832,21.0856094 L15.8761094,19.005457 C14.8201309,18.6908691 14.4453477,19.0271094 14.7511309,20.014043 L17.2506738,26.1286738 C17.8114785,27.0459785 18.6415,27.3531094 20.0627832,26.3173906 L36.8858906,16.0716094 C37.9547168,17.8642168 38.5581523,19.8896094 38.5581523,22.0313047 C38.5588262,29.3229785 31.5695215,35.2691523 23,35.2691523 Z" id="Shape"></path>
                </g>
            </g>
        </g>
    </g>
</svg>