<?xml version="1.0" encoding="UTF-8"?>
<svg width="46px" height="46px" viewBox="0 0 46 46" version="1.1" xmlns="http://www.w3.org/2000/svg" xmlns:xlink="http://www.w3.org/1999/xlink">
    <!-- Generator: Sketch 51.2 (57519) - http://www.bohemiancoding.com/sketch -->
    <title>icon_支付宝</title>
    <desc>Created with Sketch.</desc>
    <defs></defs>
    <g id="定稿" stroke="none" stroke-width="1" fill="none" fill-rule="evenodd">
        <g id="加入会员" transform="translate(-40.000000, -740.000000)" fill="#359FF4" fill-rule="nonzero">
            <g id="支付方式" transform="translate(0.000000, 636.000000)">
                <g id="icon_支付宝" transform="translate(40.000000, 104.000000)">
                    <path d="M45.976824,7.09882297 L45.976824,31.0467512 L30.5573871,25.8999762 C31.030076,25.0394743 31.5842629,24.0003778 32.2036483,22.7502147 C33.3446214,20.3635399 34.1107034,18.3502903 34.5018942,16.6779943 L25.6838018,16.6779943 L25.6838018,13.3171664 L36.5882451,13.3171664 L36.5882451,11.9533522 L25.6838018,11.9533522 L25.6838018,6.74163356 L20.8102166,6.74163356 L20.8102166,11.8884086 L9.88947378,11.8884086 L9.88947378,13.3821099 L20.7287185,13.3821099 L20.7287185,16.5968149 L11.3890385,16.5968149 L11.3890385,18.2366391 L28.8948262,18.2366391 L28.6829312,20.0225863 C28.2591412,21.5487594 27.4930593,23.0911683 26.3846853,24.666049 C20.6472204,23.1885836 17.0776045,22.4092612 15.6921371,22.3118459 C13.2960936,22.1170153 11.4868361,22.165723 10.2317657,22.4579688 C9.09079257,22.6527994 7.96611902,23.1074042 6.85774514,23.821783 L5.84716897,24.6822849 C5.17888472,25.3479561 4.72249547,26.0136273 4.47800118,26.6792986 L4.11940965,27.8969898 C3.92381426,28.9360864 3.92381426,30.0076547 4.11940965,31.0467512 L4.68989619,32.9788214 C5.4070793,34.4075791 6.43395513,35.4791475 7.77052368,36.1935263 L9.35158643,36.9728488 C10.6881549,37.4436894 12.0084239,37.6709917 13.2960936,37.6222841 L15.3009463,37.4112176 C16.8331103,37.216387 18.1696788,36.9079052 19.3269516,36.4857722 C19.9137378,36.2584699 20.5005239,35.9986957 21.0547108,35.7064498 C22.3912793,35.0407786 23.467054,34.293928 24.2820349,33.4983697 C26.1075918,31.9721966 27.3626623,30.6895618 28.0798454,29.6342294 L45.9442248,37.2001511 L45.9442248,38.9860983 C45.9442248,40.9344043 45.2433413,42.5904644 43.8578739,43.9218069 C42.5213054,45.301857 40.8750441,46 38.9027906,46 L7.118539,46 C5.16258506,46 3.48372459,45.301857 2.09825723,43.9218069 C0.712789863,42.5904644 0.011906371,40.9506402 0.011906371,38.9860983 L0.011906371,7.09882297 C0.011906371,5.15051694 0.712789863,3.47822093 2.09825723,2.09817084 C3.53262345,0.718120749 5.19518429,0.0199777595 7.16743786,0.0199777595 L38.9516894,0.0199777595 C40.9076434,0.0199777595 42.5702042,0.718120749 43.9067727,2.09817084 C45.2922401,3.47822093 45.9768239,5.15051694 45.976824,7.09882297 Z M12.4648131,24.1789725 C13.0352997,24.1789725 13.5242882,24.1952084 13.8991793,24.243916 C15.2357478,24.3413314 16.7679118,24.6985208 18.4956711,25.3154843 C19.6366442,25.6889096 21.5111001,26.5331756 24.0864395,27.8158104 C23.5648517,28.7250199 22.5542755,29.7965882 21.0710104,31.0305153 C20.2560296,31.7936019 19.2291538,32.5079807 17.990383,33.173652 C17.4687953,33.4658979 16.9146083,33.7094361 16.3441218,33.8880309 C15.0564521,34.3588715 13.7687824,34.6024098 12.4648131,34.6024098 L11.0304469,34.3913432 C10.0850692,34.3588715 9.15599105,34.1315691 8.30841098,33.7419079 L7.44453134,33.0924726 C6.67844937,32.475509 6.15686165,31.777366 5.86346855,31.0142794 L5.65157354,29.9427112 C5.55377583,29.4231629 5.65157354,28.7737275 5.94496664,28.010641 L6.45025475,27.0040162 C6.87404476,26.2409297 7.52602944,25.6239661 8.38990908,25.1368896 L9.46568372,24.6335772 C10.3132637,24.390039 11.32384,24.2276802 12.4648131,24.1789725 Z" id="Shape"></path>
                </g>
            </g>
        </g>
    </g>
</svg>